<?xml version="1.0" encoding="UTF-8"?>
<svg xmlns="http://www.w3.org/2000/svg" xmlns:xlink="http://www.w3.org/1999/xlink" width="375pt" height="374.999991pt" viewBox="0 0 375 374.999991" version="1.2">
<defs>
<filter id="alpha" filterUnits="objectBoundingBox" x="0%" y="0%" width="100%" height="100%">
  <feColorMatrix type="matrix" in="SourceGraphic" values="0 0 0 0 1 0 0 0 0 1 0 0 0 0 1 0 0 0 1 0"/>
</filter>
<mask id="mask0">
  <g filter="url(#alpha)">
<rect x="0" y="0" width="375" height="374.999991" style="fill:rgb(0%,0%,0%);fill-opacity:0.5569;stroke:none;"/>
  </g>
</mask>
<clipPath id="clip2">
  <path d="M 0.359375 0.839844 L 220 0.839844 L 220 220.921875 L 0.359375 220.921875 Z M 0.359375 0.839844 "/>
</clipPath>
<clipPath id="clip1">
  <rect x="0" y="0" width="221" height="221"/>
</clipPath>
<g id="surface5" clip-path="url(#clip1)">
<g clip-path="url(#clip2)" clip-rule="nonzero">
<path style=" stroke:none;fill-rule:nonzero;fill:rgb(0%,100%,100%);fill-opacity:1;" d="M 0.480469 0.910156 L 219.949219 0.910156 L 219.949219 220.375 L 0.480469 220.375 Z M 0.480469 0.910156 "/>
</g>
</g>
<clipPath id="clip3">
  <path d="M 238 63 L 374.664062 63 L 374.664062 198.957031 L 238 198.957031 Z M 238 63 "/>
</clipPath>
<mask id="mask1">
  <g filter="url(#alpha)">
<rect x="0" y="0" width="375" height="374.999991" style="fill:rgb(0%,0%,0%);fill-opacity:0.549;stroke:none;"/>
  </g>
</mask>
<clipPath id="clip5">
  <path d="M 0.480469 0.519531 L 175.679688 0.519531 L 175.679688 175.71875 L 0.480469 175.71875 Z M 0.480469 0.519531 "/>
</clipPath>
<clipPath id="clip4">
  <rect x="0" y="0" width="176" height="176"/>
</clipPath>
<g id="surface8" clip-path="url(#clip4)">
<g clip-path="url(#clip5)" clip-rule="nonzero">
<path style=" stroke:none;fill-rule:nonzero;fill:rgb(100%,0%,100%);fill-opacity:1;" d="M 0.550781 0.570312 L 175.234375 0.570312 L 175.234375 175.257812 L 0.550781 175.257812 Z M 0.550781 0.570312 "/>
</g>
</g>
<clipPath id="clip6">
  <path d="M 12.550781 183 L 113 183 L 113 266 L 12.550781 266 Z M 12.550781 183 "/>
</clipPath>
<clipPath id="clip7">
  <path d="M 12.550781 182.339844 L 114 182.339844 L 114 266 L 12.550781 266 Z M 12.550781 182.339844 "/>
</clipPath>
<clipPath id="clip8">
  <path d="M 12.550781 272 L 125.800781 272 L 125.800781 276.839844 L 12.550781 276.839844 Z M 12.550781 272 "/>
</clipPath>
<clipPath id="clip9">
  <path d="M 12.550781 271 L 125.800781 271 L 125.800781 276.839844 L 12.550781 276.839844 Z M 12.550781 271 "/>
</clipPath>
<clipPath id="clip10">
  <path d="M 12.550781 265 L 125.800781 265 L 125.800781 273 L 12.550781 273 Z M 12.550781 265 "/>
</clipPath>
<clipPath id="clip11">
  <path d="M 12.550781 264 L 125.800781 264 L 125.800781 274 L 12.550781 274 Z M 12.550781 264 "/>
</clipPath>
<clipPath id="clip12">
  <path d="M 286.238281 182.339844 L 349.238281 182.339844 L 349.238281 245.339844 L 286.238281 245.339844 Z M 286.238281 182.339844 "/>
</clipPath>
</defs>
<g id="surface1">
<use xlink:href="#surface5" transform="matrix(1,0,0,1,141,57)" mask="url(#mask0)"/>
<g clip-path="url(#clip3)" clip-rule="nonzero">
<path style=" stroke:none;fill-rule:evenodd;fill:rgb(100%,100%,100%);fill-opacity:1;" d="M 272.238281 185.59375 C 271.84375 186.019531 270.960938 186.601562 270.351562 186.8125 L 244.425781 197.503906 C 239.917969 199.363281 237.785156 197.199219 239.644531 192.722656 L 250.308594 166.828125 C 250.550781 166.191406 251.128906 165.367188 251.554688 164.878906 L 350.039062 66.425781 C 354.578125 61.886719 362.011719 61.886719 366.582031 66.457031 L 370.664062 70.570312 C 375.261719 75.167969 375.261719 82.542969 370.722656 87.140625 L 366.550781 91.253906 L 370.691406 95.367188 C 372.976562 97.679688 372.949219 101.429688 370.722656 103.683594 L 343.824219 130.578125 C 342.667969 131.707031 340.78125 131.675781 339.683594 130.578125 C 338.523438 129.421875 338.585938 127.535156 339.683594 126.375 L 366.550781 99.539062 L 362.4375 95.394531 Z M 354.152344 70.601562 L 350.007812 74.710938 L 362.4375 87.140625 L 366.550781 83 C 368.835938 80.714844 368.867188 77.058594 366.550781 74.710938 L 362.40625 70.601562 C 360.152344 68.316406 356.4375 68.316406 354.152344 70.601562 Z M 259.019531 165.703125 L 271.449219 178.132812 L 358.296875 91.253906 L 345.898438 78.886719 Z M 266.9375 181.910156 L 255.273438 170.242188 L 246.957031 190.195312 Z M 266.9375 181.910156 "/>
</g>
<use xlink:href="#surface8" transform="matrix(1,0,0,1,12,149)" mask="url(#mask1)"/>
<g clip-path="url(#clip6)" clip-rule="nonzero">
<path style=" stroke:none;fill-rule:nonzero;fill:rgb(100%,100%,100%);fill-opacity:1;" d="M 106.628906 258.90625 L -8.703125 258.90625 L -8.703125 189.566406 L 106.628906 189.566406 Z M 106.789062 183.011719 L -9.507812 183.011719 C -12.691406 183.011719 -15.273438 185.589844 -15.273438 188.765625 L -15.273438 265.144531 L 112.554688 265.144531 L 112.554688 188.765625 C 112.554688 185.589844 109.972656 183.011719 106.789062 183.011719 "/>
</g>
<g clip-path="url(#clip7)" clip-rule="nonzero">
<path style=" stroke:none;fill-rule:nonzero;fill:rgb(100%,100%,100%);fill-opacity:1;" d="M 106.628906 258.90625 L 106.628906 258.242188 L -8.039062 258.242188 L -8.039062 190.230469 L 105.964844 190.230469 L 105.964844 258.90625 L 106.628906 258.90625 L 106.628906 258.242188 L 106.628906 258.90625 L 107.292969 258.90625 L 107.292969 189.566406 C 107.292969 189.390625 107.222656 189.21875 107.101562 189.097656 C 106.976562 188.972656 106.804688 188.902344 106.628906 188.902344 L -8.703125 188.902344 C -8.878906 188.902344 -9.050781 188.972656 -9.175781 189.097656 C -9.296875 189.21875 -9.371094 189.390625 -9.371094 189.566406 L -9.371094 258.90625 C -9.371094 259.082031 -9.296875 259.253906 -9.175781 259.378906 C -9.050781 259.5 -8.878906 259.570312 -8.703125 259.570312 L 106.628906 259.570312 C 106.804688 259.570312 106.976562 259.5 107.101562 259.375 C 107.222656 259.253906 107.292969 259.082031 107.292969 258.90625 Z M 106.789062 183.011719 L 106.789062 182.347656 L -9.507812 182.347656 C -13.0625 182.347656 -15.9375 185.226562 -15.9375 188.765625 L -15.9375 265.144531 C -15.9375 265.320312 -15.867188 265.492188 -15.742188 265.613281 C -15.617188 265.738281 -15.449219 265.808594 -15.273438 265.808594 L 112.554688 265.808594 C 112.730469 265.808594 112.902344 265.738281 113.027344 265.613281 C 113.152344 265.492188 113.222656 265.320312 113.222656 265.144531 L 113.222656 188.765625 C 113.222656 185.226562 110.339844 182.351562 106.789062 182.347656 L 106.789062 183.675781 C 108.199219 183.675781 109.46875 184.246094 110.394531 185.167969 C 111.320312 186.09375 111.890625 187.359375 111.890625 188.765625 L 111.890625 264.480469 L -14.609375 264.480469 L -14.609375 188.765625 C -14.609375 187.359375 -14.039062 186.089844 -13.113281 185.167969 C -12.1875 184.246094 -10.917969 183.675781 -9.507812 183.675781 L 106.789062 183.675781 L 106.789062 183.011719 "/>
</g>
<g clip-path="url(#clip8)" clip-rule="nonzero">
<path style=" stroke:none;fill-rule:nonzero;fill:rgb(100%,100%,100%);fill-opacity:1;" d="M 120.734375 276.167969 L -21.78125 276.167969 L -26.585938 272.492188 L 125.542969 272.492188 L 120.734375 276.167969 "/>
</g>
<g clip-path="url(#clip9)" clip-rule="nonzero">
<path style=" stroke:none;fill-rule:nonzero;fill:rgb(100%,100%,100%);fill-opacity:1;" d="M 120.734375 276.167969 L 120.734375 275.5 L -21.554688 275.5 L -24.625 273.15625 L 123.582031 273.15625 L 120.332031 275.640625 L 120.734375 276.167969 L 120.734375 275.5 L 120.734375 276.167969 L 121.140625 276.695312 L 125.945312 273.019531 C 126.171875 272.84375 126.261719 272.550781 126.171875 272.277344 C 126.082031 272.007812 125.828125 271.828125 125.542969 271.828125 L -26.585938 271.828125 C -26.871094 271.828125 -27.125 272.007812 -27.214844 272.277344 C -27.308594 272.550781 -27.21875 272.84375 -26.992188 273.019531 L -22.183594 276.691406 C -22.070312 276.78125 -21.925781 276.832031 -21.78125 276.832031 L 120.734375 276.832031 C 120.878906 276.832031 121.023438 276.78125 121.140625 276.695312 L 120.734375 276.167969 "/>
</g>
<g clip-path="url(#clip10)" clip-rule="nonzero">
<path style=" stroke:none;fill-rule:nonzero;fill:rgb(100%,100%,100%);fill-opacity:1;" d="M 102.199219 269.019531 L 96.484375 269.019531 C 96.121094 269.019531 95.828125 268.726562 95.828125 268.363281 C 95.828125 268.003906 96.121094 267.710938 96.484375 267.710938 L 102.199219 267.710938 C 102.5625 267.710938 102.855469 268.003906 102.855469 268.363281 C 102.855469 268.726562 102.5625 269.019531 102.199219 269.019531 Z M 64.460938 265.144531 L 64.460938 267.597656 C 64.460938 268.035156 64.023438 268.390625 63.484375 268.390625 L 39.183594 268.390625 C 38.648438 268.390625 38.210938 268.035156 38.210938 267.597656 L 38.210938 265.144531 L -26.585938 265.144531 L -26.585938 272.492188 L 125.542969 272.492188 L 125.542969 265.144531 L 64.460938 265.144531 "/>
</g>
<g clip-path="url(#clip11)" clip-rule="nonzero">
<path style=" stroke:none;fill-rule:nonzero;fill:rgb(100%,100%,100%);fill-opacity:1;" d="M 102.199219 269.019531 L 102.199219 268.355469 L 96.484375 268.355469 L 96.484375 268.363281 L 96.492188 268.359375 L 96.484375 268.355469 L 96.484375 268.363281 L 96.492188 268.359375 L 96.484375 268.363281 L 96.496094 268.363281 L 96.492188 268.359375 L 96.484375 268.363281 L 96.496094 268.363281 L 96.492188 268.363281 L 96.496094 268.367188 L 96.496094 268.363281 L 96.492188 268.363281 L 96.496094 268.367188 L 96.484375 268.363281 L 96.484375 268.371094 L 96.496094 268.367188 L 96.484375 268.363281 L 96.484375 268.371094 L 102.199219 268.371094 L 102.199219 268.363281 L 102.191406 268.363281 L 102.199219 268.371094 L 102.199219 268.363281 L 102.191406 268.363281 L 102.199219 268.363281 L 102.199219 268.355469 L 102.191406 268.363281 L 102.199219 268.363281 L 102.199219 268.355469 L 102.199219 269.683594 C 102.929688 269.679688 103.519531 269.097656 103.523438 268.363281 C 103.523438 267.632812 102.929688 267.046875 102.199219 267.042969 L 96.484375 267.042969 C 96.125 267.042969 95.785156 267.195312 95.550781 267.433594 C 95.3125 267.671875 95.164062 268.003906 95.164062 268.363281 C 95.164062 268.726562 95.3125 269.058594 95.550781 269.296875 C 95.789062 269.535156 96.125 269.683594 96.484375 269.683594 L 102.199219 269.683594 Z M 64.460938 265.144531 L 63.796875 265.144531 L 63.796875 267.597656 L 63.804688 267.597656 L 63.796875 267.597656 L 63.804688 267.597656 L 63.796875 267.597656 L 63.785156 267.613281 C 63.765625 267.648438 63.648438 267.726562 63.484375 267.726562 L 39.183594 267.726562 C 39.0625 267.726562 38.964844 267.683594 38.917969 267.644531 L 38.878906 267.601562 L 38.875 267.597656 L 38.871094 267.597656 L 38.875 267.597656 L 38.871094 267.597656 L 38.875 267.597656 L 38.875 265.144531 C 38.875 264.96875 38.804688 264.800781 38.683594 264.675781 C 38.558594 264.550781 38.386719 264.480469 38.210938 264.480469 L -26.585938 264.480469 C -26.761719 264.480469 -26.933594 264.550781 -27.058594 264.675781 C -27.183594 264.796875 -27.253906 264.96875 -27.253906 265.144531 L -27.253906 272.492188 C -27.253906 272.667969 -27.183594 272.835938 -27.058594 272.960938 C -26.933594 273.085938 -26.761719 273.15625 -26.585938 273.15625 L 125.542969 273.15625 C 125.714844 273.15625 125.890625 273.085938 126.011719 272.960938 C 126.136719 272.835938 126.207031 272.667969 126.207031 272.492188 L 126.207031 265.144531 C 126.207031 264.96875 126.136719 264.800781 126.011719 264.675781 C 125.890625 264.550781 125.714844 264.480469 125.542969 264.480469 L 64.460938 264.480469 C 64.285156 264.480469 64.113281 264.550781 63.992188 264.675781 C 63.867188 264.796875 63.796875 264.96875 63.796875 265.144531 L 64.460938 265.144531 L 64.460938 265.808594 L 124.875 265.808594 L 124.875 271.828125 L -25.921875 271.828125 L -25.921875 265.808594 L 37.546875 265.808594 L 37.546875 267.597656 C 37.542969 268.042969 37.773438 268.429688 38.074219 268.671875 C 38.378906 268.917969 38.769531 269.050781 39.183594 269.054688 L 63.484375 269.054688 C 63.902344 269.050781 64.289062 268.921875 64.597656 268.671875 C 64.898438 268.429688 65.128906 268.042969 65.125 267.597656 L 65.125 265.144531 L 64.460938 265.144531 L 64.460938 265.808594 L 64.460938 265.144531 "/>
</g>
<g clip-path="url(#clip12)" clip-rule="nonzero">
<path style=" stroke:none;fill-rule:nonzero;fill:rgb(100%,100%,100%);fill-opacity:1;" d="M 317.738281 182.339844 C 300.324219 182.339844 286.238281 196.421875 286.238281 213.839844 C 286.238281 231.257812 300.324219 245.339844 317.738281 245.339844 C 335.15625 245.339844 349.238281 231.257812 349.238281 213.839844 C 349.238281 196.421875 335.15625 182.339844 317.738281 182.339844 Z M 317.738281 187.589844 C 332.347656 187.589844 343.988281 199.230469 343.988281 213.839844 C 343.988281 228.449219 332.347656 240.089844 317.738281 240.089844 C 303.132812 240.089844 291.488281 228.449219 291.488281 213.839844 C 291.488281 199.230469 303.132812 187.589844 317.738281 187.589844 Z M 307.238281 203.339844 C 304.339844 203.339844 301.988281 205.6875 301.988281 208.589844 C 301.988281 211.492188 304.339844 213.839844 307.238281 213.839844 C 310.140625 213.839844 312.488281 211.492188 312.488281 208.589844 C 312.488281 205.6875 310.140625 203.339844 307.238281 203.339844 Z M 328.238281 205.964844 C 323.25 205.964844 320.363281 211.214844 320.363281 211.214844 L 336.113281 211.214844 C 336.113281 211.214844 333.226562 205.964844 328.238281 205.964844 Z M 331.027344 218.1875 C 331.027344 218.1875 327.996094 226.964844 317.738281 226.964844 C 311.992188 226.964844 309.207031 223.683594 309.207031 223.683594 L 305.269531 227.128906 C 305.269531 227.128906 309.839844 232.214844 317.738281 232.214844 C 331.105469 232.214844 335.949219 219.992188 335.949219 219.992188 Z M 331.027344 218.1875 "/>
</g>
</g>
</svg>
